<svg width="26" height="28" viewBox="0 0 26 28" fill="none" xmlns="http://www.w3.org/2000/svg">
<path d="M1.64158 0C1.22634 0 0.792128 0.150402 0.475228 0.491407C-0.158409 1.17517 -0.158409 2.32232 0.475228 3.00608L10.6675 13.99L0.475228 24.9738C-0.158409 25.6576 -0.158409 26.8047 0.475228 27.4885C1.10903 28.1705 2.17412 28.1705 2.80792 27.4885L13 16.5047L23.1921 27.4885C23.8259 28.1705 24.891 28.1705 25.5248 27.4885C26.1584 26.8047 26.1584 25.6576 25.5248 24.9738L15.3325 13.99L25.5248 3.00608C26.1584 2.32232 26.1584 1.17517 25.5248 0.491407C25.2079 0.150402 24.7735 0 24.3584 0C23.9432 0 23.5091 0.150402 23.1921 0.491407L13 11.4753L2.80792 0.491407C2.49102 0.150402 2.05681 0 1.64158 0Z" fill="#B2B2B2"/>
</svg>
